# xmcd CD database file
# Copyright (C) 1993-1998 Ti Kan
#
# Track frame offsets:
#	150
#	12262
#	27192
#	41242
#	59710
#	75110
#	93070
#	107887
#	123777
#	138552
#	152287
#	168367
#
# Disc length: 2431 seconds
#
# Revision: 1
# Processed by: cddbd v1.4b41PL1 Copyright (c) Steve Scherf et al.
# Submitted via: NotifyCDPlayer(CDDB) 1.51.3
#
DISCID=89097d0c
DTITLE=R. Crumb and His Cheap Suit Serenaders - Chasin Rainbows
DYEAR=1900
DGENRE=
TTITLE0=Alabama Jubilee
TTITLE1=Chasin' Rainbows
TTITLE2=Fine Artiste Blues
TTITLE3=Hula Medley
TTITLE4=I Want A Little Girl
TTITLE5=Persian Rug
TTITLE6=Mysterious Mose
TTITLE7=Crying My Blues Away
TTITLE8=She Live Down By The Fire House
TTITLE9=Diane
TTITLE10=Make My Cot Where The Cot-Cot-Cotton Grows
TTITLE11=Moana March
EXTD=
EXTT0=
EXTT1=
EXTT2=
EXTT3=
EXTT4=
EXTT5=
EXTT6=
EXTT7=
EXTT8=
EXTT9=
EXTT10=
EXTT11=
PLAYORDER=
